; NON-PLATED HOLES START AT T1
; THROUGH (PLATED) HOLES START AT T100
M48
INCH
T1C0.125984
T2C0.066944
T3C0.066917
T4C0.078750
T100C0.031496
T101C0.035433
T102C0.038000
T103C0.035000
T104C0.032000
T105C0.130000
T106C0.039379
T107C0.030000
T108C0.015748
T109C0.039370
T110C0.040000
T111C0.125984
T112C0.118000
T113C0.031555
%
T1
X023893Y001294
X001005Y019562
X033735Y001333
X050217Y019483
X001044Y000979
X050414Y000979
T2
X035956Y000614
X040215Y000665
T3
X043168Y000665
X038909Y000614
T4
X037432Y003173
X041692Y003224
T100
X025415Y011962
X025415Y016529
T101
X008269Y004053
X017816Y004008
X006910Y004048
X019312Y004011
X005454Y004050
X016359Y004011
T102
X007422Y019641
X037695Y019098
X030375Y014326
X030375Y012326
X041695Y019098
X001477Y017207
X049588Y007294
X001477Y015207
X001477Y011207
X007422Y018641
X001477Y005207
X039159Y011382
X049588Y013294
X042695Y019098
X040695Y019098
X030375Y016326
X049588Y005294
X007422Y012641
X049588Y003294
X007422Y011641
X041159Y011382
X049588Y011294
X001477Y003207
X007422Y013641
X007422Y010641
X007422Y016641
X030375Y018326
X038695Y019098
X049588Y009294
X007422Y017641
X007422Y014641
X001477Y013207
X040159Y011382
X001477Y009207
X007422Y015641
X039695Y019098
X001477Y007207
T103
X008966Y018900
X015955Y011215
X023328Y019640
X017955Y014215
X016955Y014215
X046556Y014940
X009955Y014215
X013966Y018900
X015966Y015900
X014955Y011215
X020955Y011215
X023328Y014759
X009966Y015900
X020955Y014215
X011955Y011215
X010955Y014215
X010966Y015900
X010966Y018900
X014955Y014215
X046595Y017381
X021955Y011215
X009966Y018900
X023328Y015640
X021966Y015900
X044824Y006074
X012966Y018900
X019966Y015900
X017966Y018900
X019966Y018900
X020966Y015900
X043918Y006074
X009955Y011215
X010955Y011215
X016955Y011215
X011955Y014215
X011966Y018900
X013966Y015900
X018955Y014215
X008966Y015900
X018966Y015900
X018955Y011215
X019955Y014215
X020966Y018900
X014966Y018900
X011966Y015900
X021955Y014215
X015966Y018900
X017966Y015900
X016966Y018900
X017955Y011215
X019955Y011215
X016966Y015900
X018966Y018900
X023328Y010759
X008955Y014215
X012955Y011215
X021966Y018900
X044824Y010074
X046556Y015940
X046595Y018381
X012955Y014215
X014966Y015900
X013955Y014215
X015955Y014215
X043918Y010074
X012966Y015900
X008955Y011215
X013955Y011215
T104
X028210Y010042
X038784Y009097
X041501Y006089
X042501Y006089
X027210Y007042
X039784Y006097
X031026Y010042
X027210Y010042
X030026Y010042
X041501Y009089
X028210Y007042
X039784Y009097
X031026Y007042
X042501Y009089
X038784Y006097
X030026Y007042
T105
X023893Y001311
X033735Y001311
T106
X041682Y000665
X037226Y000614
X035287Y003961
X039546Y004011
X035287Y003567
X039546Y003814
X035287Y003764
X037620Y000614
X039546Y003617
X037423Y000614
X041879Y000665
X041485Y000665
T107
X027265Y014404
X027265Y013402
X027304Y011552
X027304Y012554
X027265Y018932
X027265Y017930
X027225Y016963
X027225Y015961
T108
X029391Y020152
X034784Y019444
X014981Y013420
X011949Y017596
X034194Y003144
X012973Y017514
X014942Y018066
X034784Y003538
X012971Y016607
X011949Y016573
T109
X048721Y015672
X048721Y017672
X048721Y016672
T110
X029357Y000752
X013800Y001467
X028271Y000752
X027180Y000752
X010800Y005467
X012800Y005467
X012800Y001467
X014800Y005467
X028814Y001870
X011800Y005467
X011800Y001467
X030448Y000752
X029905Y001870
X009800Y005467
X026633Y001870
X009800Y001467
X013800Y005467
X010800Y001467
X030995Y001870
X014800Y001467
X027724Y001870
T111
X045744Y004238
T112
X045754Y001356
X047225Y002987
T113
X025414Y018459
X025414Y013892
T00
M30
