G04 MADE WITH FRITZING*
G04 WWW.FRITZING.ORG*
G04 DOUBLE SIDED*
G04 HOLES PLATED*
G04 CONTOUR ON CENTER OF CONTOUR VECTOR*
%ASAXBY*%
%FSLAX23Y23*%
%MOIN*%
%OFA0B0*%
%SFA1.0B1.0*%
%ADD10C,0.200000*%
%ADD11C,0.066917*%
%ADD12C,0.066944*%
%ADD13C,0.078750*%
%ADD14R,0.314961X0.078740*%
%ADD15R,0.001000X0.001000*%
%LNPASTEMASK0*%
G90*
G70*
G54D10*
X3374Y131D03*
X2389Y131D03*
G54D11*
X4317Y67D03*
G54D12*
X4022Y67D03*
G54D13*
X4169Y322D03*
G54D11*
X3891Y61D03*
G54D12*
X3596Y61D03*
G54D13*
X3743Y317D03*
G54D14*
X4778Y1665D03*
G54D15*
X4219Y2362D02*
X4375Y2362D01*
X4534Y2362D02*
X4690Y2362D01*
X4219Y2361D02*
X4375Y2361D01*
X4534Y2361D02*
X4690Y2361D01*
X4219Y2360D02*
X4375Y2360D01*
X4534Y2360D02*
X4690Y2360D01*
X4219Y2359D02*
X4375Y2359D01*
X4534Y2359D02*
X4690Y2359D01*
X4219Y2358D02*
X4375Y2358D01*
X4534Y2358D02*
X4690Y2358D01*
X4219Y2357D02*
X4375Y2357D01*
X4534Y2357D02*
X4690Y2357D01*
X4219Y2356D02*
X4375Y2356D01*
X4534Y2356D02*
X4690Y2356D01*
X4219Y2355D02*
X4375Y2355D01*
X4534Y2355D02*
X4690Y2355D01*
X4219Y2354D02*
X4375Y2354D01*
X4534Y2354D02*
X4690Y2354D01*
X4219Y2353D02*
X4375Y2353D01*
X4534Y2353D02*
X4690Y2353D01*
X4219Y2352D02*
X4375Y2352D01*
X4534Y2352D02*
X4690Y2352D01*
X4219Y2351D02*
X4375Y2351D01*
X4534Y2351D02*
X4690Y2351D01*
X4219Y2350D02*
X4375Y2350D01*
X4534Y2350D02*
X4690Y2350D01*
X4219Y2349D02*
X4375Y2349D01*
X4534Y2349D02*
X4690Y2349D01*
X4219Y2348D02*
X4375Y2348D01*
X4534Y2348D02*
X4690Y2348D01*
X4219Y2347D02*
X4375Y2347D01*
X4534Y2347D02*
X4690Y2347D01*
X4219Y2346D02*
X4375Y2346D01*
X4534Y2346D02*
X4690Y2346D01*
X4219Y2345D02*
X4375Y2345D01*
X4534Y2345D02*
X4690Y2345D01*
X4219Y2344D02*
X4375Y2344D01*
X4534Y2344D02*
X4690Y2344D01*
X4219Y2343D02*
X4375Y2343D01*
X4534Y2343D02*
X4690Y2343D01*
X4219Y2342D02*
X4375Y2342D01*
X4534Y2342D02*
X4690Y2342D01*
X4219Y2341D02*
X4375Y2341D01*
X4534Y2341D02*
X4690Y2341D01*
X4219Y2340D02*
X4375Y2340D01*
X4534Y2340D02*
X4690Y2340D01*
X4219Y2339D02*
X4375Y2339D01*
X4534Y2339D02*
X4690Y2339D01*
X4219Y2338D02*
X4375Y2338D01*
X4534Y2338D02*
X4690Y2338D01*
X4219Y2337D02*
X4375Y2337D01*
X4534Y2337D02*
X4690Y2337D01*
X4219Y2336D02*
X4375Y2336D01*
X4534Y2336D02*
X4690Y2336D01*
X4219Y2335D02*
X4375Y2335D01*
X4534Y2335D02*
X4690Y2335D01*
X4219Y2334D02*
X4375Y2334D01*
X4534Y2334D02*
X4690Y2334D01*
X4219Y2333D02*
X4375Y2333D01*
X4534Y2333D02*
X4690Y2333D01*
X4219Y2332D02*
X4375Y2332D01*
X4534Y2332D02*
X4690Y2332D01*
X4219Y2331D02*
X4375Y2331D01*
X4534Y2331D02*
X4690Y2331D01*
X4219Y2330D02*
X4375Y2330D01*
X4534Y2330D02*
X4690Y2330D01*
X4219Y2329D02*
X4375Y2329D01*
X4534Y2329D02*
X4690Y2329D01*
X4219Y2328D02*
X4375Y2328D01*
X4534Y2328D02*
X4690Y2328D01*
X4219Y2327D02*
X4375Y2327D01*
X4534Y2327D02*
X4690Y2327D01*
X4219Y2326D02*
X4375Y2326D01*
X4534Y2326D02*
X4690Y2326D01*
X4219Y2325D02*
X4375Y2325D01*
X4534Y2325D02*
X4690Y2325D01*
X4219Y2324D02*
X4375Y2324D01*
X4534Y2324D02*
X4690Y2324D01*
X4219Y2323D02*
X4375Y2323D01*
X4534Y2323D02*
X4690Y2323D01*
X4219Y2322D02*
X4375Y2322D01*
X4534Y2322D02*
X4690Y2322D01*
X4219Y2321D02*
X4375Y2321D01*
X4534Y2321D02*
X4690Y2321D01*
X4219Y2320D02*
X4375Y2320D01*
X4534Y2320D02*
X4690Y2320D01*
X4219Y2319D02*
X4375Y2319D01*
X4534Y2319D02*
X4690Y2319D01*
X4219Y2318D02*
X4375Y2318D01*
X4534Y2318D02*
X4690Y2318D01*
X4219Y2317D02*
X4375Y2317D01*
X4534Y2317D02*
X4690Y2317D01*
X4219Y2316D02*
X4375Y2316D01*
X4534Y2316D02*
X4690Y2316D01*
X4219Y2315D02*
X4375Y2315D01*
X4534Y2315D02*
X4690Y2315D01*
X4219Y2314D02*
X4375Y2314D01*
X4534Y2314D02*
X4690Y2314D01*
X4219Y2313D02*
X4375Y2313D01*
X4534Y2313D02*
X4690Y2313D01*
X4219Y2312D02*
X4375Y2312D01*
X4534Y2312D02*
X4690Y2312D01*
X4219Y2311D02*
X4375Y2311D01*
X4534Y2311D02*
X4690Y2311D01*
X4219Y2310D02*
X4375Y2310D01*
X4534Y2310D02*
X4690Y2310D01*
X4219Y2309D02*
X4375Y2309D01*
X4534Y2309D02*
X4690Y2309D01*
X4219Y2308D02*
X4375Y2308D01*
X4534Y2308D02*
X4690Y2308D01*
X4219Y2307D02*
X4375Y2307D01*
X4534Y2307D02*
X4690Y2307D01*
X4219Y2306D02*
X4375Y2306D01*
X4534Y2306D02*
X4690Y2306D01*
X4219Y2305D02*
X4375Y2305D01*
X4534Y2305D02*
X4690Y2305D01*
X4219Y2304D02*
X4375Y2304D01*
X4534Y2304D02*
X4690Y2304D01*
X4219Y2303D02*
X4375Y2303D01*
X4534Y2303D02*
X4690Y2303D01*
X4219Y2302D02*
X4375Y2302D01*
X4534Y2302D02*
X4690Y2302D01*
X4219Y2301D02*
X4375Y2301D01*
X4534Y2301D02*
X4690Y2301D01*
X4219Y2300D02*
X4375Y2300D01*
X4534Y2300D02*
X4690Y2300D01*
X4219Y2299D02*
X4375Y2299D01*
X4534Y2299D02*
X4690Y2299D01*
X4219Y2298D02*
X4375Y2298D01*
X4534Y2298D02*
X4690Y2298D01*
X4219Y2297D02*
X4375Y2297D01*
X4534Y2297D02*
X4690Y2297D01*
X4219Y2296D02*
X4375Y2296D01*
X4534Y2296D02*
X4690Y2296D01*
X4219Y2295D02*
X4375Y2295D01*
X4534Y2295D02*
X4690Y2295D01*
X4219Y2294D02*
X4375Y2294D01*
X4534Y2294D02*
X4690Y2294D01*
X4219Y2293D02*
X4375Y2293D01*
X4534Y2293D02*
X4690Y2293D01*
X4219Y2292D02*
X4375Y2292D01*
X4534Y2292D02*
X4690Y2292D01*
X4219Y2291D02*
X4375Y2291D01*
X4534Y2291D02*
X4690Y2291D01*
X4219Y2290D02*
X4375Y2290D01*
X4534Y2290D02*
X4690Y2290D01*
X4219Y2289D02*
X4375Y2289D01*
X4534Y2289D02*
X4690Y2289D01*
X4219Y2288D02*
X4375Y2288D01*
X4534Y2288D02*
X4690Y2288D01*
X4219Y2287D02*
X4375Y2287D01*
X4534Y2287D02*
X4690Y2287D01*
X4219Y2286D02*
X4375Y2286D01*
X4534Y2286D02*
X4690Y2286D01*
X4219Y2285D02*
X4375Y2285D01*
X4534Y2285D02*
X4690Y2285D01*
X4219Y2284D02*
X4375Y2284D01*
X4534Y2284D02*
X4690Y2284D01*
X4219Y2283D02*
X4375Y2283D01*
X4534Y2283D02*
X4690Y2283D01*
X4219Y2282D02*
X4375Y2282D01*
X4534Y2282D02*
X4690Y2282D01*
X4219Y2281D02*
X4375Y2281D01*
X4534Y2281D02*
X4690Y2281D01*
X4219Y2280D02*
X4375Y2280D01*
X4534Y2280D02*
X4690Y2280D01*
X4219Y2279D02*
X4375Y2279D01*
X4534Y2279D02*
X4690Y2279D01*
X4219Y2278D02*
X4375Y2278D01*
X4534Y2278D02*
X4690Y2278D01*
X4219Y2277D02*
X4375Y2277D01*
X4534Y2277D02*
X4690Y2277D01*
X4219Y2276D02*
X4375Y2276D01*
X4534Y2276D02*
X4690Y2276D01*
X4219Y2275D02*
X4375Y2275D01*
X4534Y2275D02*
X4690Y2275D01*
X4219Y2274D02*
X4375Y2274D01*
X4534Y2274D02*
X4690Y2274D01*
X4219Y2273D02*
X4375Y2273D01*
X4534Y2273D02*
X4690Y2273D01*
X4219Y2272D02*
X4375Y2272D01*
X4534Y2272D02*
X4690Y2272D01*
X4219Y2271D02*
X4375Y2271D01*
X4534Y2271D02*
X4690Y2271D01*
X4219Y2270D02*
X4375Y2270D01*
X4534Y2270D02*
X4690Y2270D01*
X4219Y2269D02*
X4375Y2269D01*
X4534Y2269D02*
X4690Y2269D01*
X4219Y2268D02*
X4375Y2268D01*
X4534Y2268D02*
X4690Y2268D01*
X4219Y2267D02*
X4375Y2267D01*
X4534Y2267D02*
X4690Y2267D01*
X4219Y2266D02*
X4375Y2266D01*
X4534Y2266D02*
X4690Y2266D01*
X4219Y2265D02*
X4375Y2265D01*
X4534Y2265D02*
X4690Y2265D01*
X4219Y2264D02*
X4375Y2264D01*
X4534Y2264D02*
X4690Y2264D01*
X4219Y2263D02*
X4375Y2263D01*
X4534Y2263D02*
X4690Y2263D01*
X4219Y2262D02*
X4375Y2262D01*
X4534Y2262D02*
X4690Y2262D01*
X4219Y2261D02*
X4375Y2261D01*
X4534Y2261D02*
X4690Y2261D01*
X4219Y2260D02*
X4375Y2260D01*
X4534Y2260D02*
X4690Y2260D01*
X4219Y2259D02*
X4375Y2259D01*
X4534Y2259D02*
X4690Y2259D01*
X4219Y2258D02*
X4375Y2258D01*
X4534Y2258D02*
X4690Y2258D01*
X4219Y2257D02*
X4375Y2257D01*
X4534Y2257D02*
X4690Y2257D01*
X4219Y2256D02*
X4375Y2256D01*
X4534Y2256D02*
X4690Y2256D01*
X4219Y2255D02*
X4375Y2255D01*
X4534Y2255D02*
X4690Y2255D01*
X4219Y2254D02*
X4375Y2254D01*
X4534Y2254D02*
X4690Y2254D01*
X4219Y2253D02*
X4375Y2253D01*
X4534Y2253D02*
X4690Y2253D01*
X4219Y2252D02*
X4375Y2252D01*
X4534Y2252D02*
X4690Y2252D01*
X4219Y2251D02*
X4375Y2251D01*
X4534Y2251D02*
X4690Y2251D01*
X4219Y2250D02*
X4375Y2250D01*
X4534Y2250D02*
X4690Y2250D01*
X4219Y2249D02*
X4375Y2249D01*
X4534Y2249D02*
X4690Y2249D01*
X4219Y2248D02*
X4375Y2248D01*
X4534Y2248D02*
X4690Y2248D01*
X4219Y2247D02*
X4375Y2247D01*
X4534Y2247D02*
X4690Y2247D01*
X4219Y2246D02*
X4375Y2246D01*
X4534Y2246D02*
X4690Y2246D01*
X4219Y2245D02*
X4375Y2245D01*
X4534Y2245D02*
X4690Y2245D01*
X4219Y2244D02*
X4375Y2244D01*
X4534Y2244D02*
X4690Y2244D01*
X4219Y2243D02*
X4375Y2243D01*
X4534Y2243D02*
X4690Y2243D01*
X4219Y2242D02*
X4375Y2242D01*
X4534Y2242D02*
X4690Y2242D01*
X4219Y2241D02*
X4375Y2241D01*
X4534Y2241D02*
X4690Y2241D01*
X4219Y2240D02*
X4375Y2240D01*
X4534Y2240D02*
X4690Y2240D01*
X4219Y2239D02*
X4375Y2239D01*
X4534Y2239D02*
X4690Y2239D01*
X4219Y2238D02*
X4375Y2238D01*
X4534Y2238D02*
X4690Y2238D01*
X4219Y2237D02*
X4375Y2237D01*
X4534Y2237D02*
X4690Y2237D01*
X4219Y2236D02*
X4375Y2236D01*
X4534Y2236D02*
X4690Y2236D01*
X4219Y2235D02*
X4375Y2235D01*
X4534Y2235D02*
X4690Y2235D01*
X4219Y2234D02*
X4375Y2234D01*
X4534Y2234D02*
X4690Y2234D01*
X4219Y2233D02*
X4375Y2233D01*
X4534Y2233D02*
X4690Y2233D01*
X4219Y2232D02*
X4375Y2232D01*
X4534Y2232D02*
X4690Y2232D01*
X4219Y2231D02*
X4375Y2231D01*
X4534Y2231D02*
X4690Y2231D01*
X4219Y2230D02*
X4375Y2230D01*
X4534Y2230D02*
X4690Y2230D01*
X4219Y2229D02*
X4375Y2229D01*
X4534Y2229D02*
X4690Y2229D01*
X4219Y2228D02*
X4375Y2228D01*
X4534Y2228D02*
X4690Y2228D01*
X4219Y2227D02*
X4375Y2227D01*
X4534Y2227D02*
X4690Y2227D01*
X4219Y2226D02*
X4375Y2226D01*
X4534Y2226D02*
X4690Y2226D01*
X4219Y2225D02*
X4375Y2225D01*
X4534Y2225D02*
X4690Y2225D01*
X4219Y2224D02*
X4375Y2224D01*
X4534Y2224D02*
X4690Y2224D01*
X4219Y2223D02*
X4375Y2223D01*
X4534Y2223D02*
X4690Y2223D01*
X4219Y2222D02*
X4375Y2222D01*
X4534Y2222D02*
X4690Y2222D01*
X4219Y2221D02*
X4375Y2221D01*
X4534Y2221D02*
X4690Y2221D01*
X4219Y2220D02*
X4375Y2220D01*
X4534Y2220D02*
X4690Y2220D01*
X4219Y2219D02*
X4375Y2219D01*
X4534Y2219D02*
X4690Y2219D01*
X4219Y2218D02*
X4375Y2218D01*
X4534Y2218D02*
X4690Y2218D01*
X4219Y2217D02*
X4375Y2217D01*
X4534Y2217D02*
X4690Y2217D01*
X4219Y2216D02*
X4375Y2216D01*
X4534Y2216D02*
X4690Y2216D01*
X4219Y2215D02*
X4375Y2215D01*
X4534Y2215D02*
X4690Y2215D01*
X4219Y2214D02*
X4375Y2214D01*
X4534Y2214D02*
X4690Y2214D01*
X4219Y2213D02*
X4375Y2213D01*
X4534Y2213D02*
X4690Y2213D01*
X4219Y2212D02*
X4375Y2212D01*
X4534Y2212D02*
X4690Y2212D01*
X4219Y2211D02*
X4375Y2211D01*
X4534Y2211D02*
X4690Y2211D01*
X4219Y2210D02*
X4375Y2210D01*
X4534Y2210D02*
X4690Y2210D01*
X4219Y2209D02*
X4375Y2209D01*
X4534Y2209D02*
X4690Y2209D01*
X4219Y2208D02*
X4375Y2208D01*
X4534Y2208D02*
X4690Y2208D01*
X4219Y2207D02*
X4375Y2207D01*
X4534Y2207D02*
X4690Y2207D01*
X4219Y2206D02*
X4375Y2206D01*
X4534Y2206D02*
X4690Y2206D01*
X4219Y2205D02*
X4375Y2205D01*
X4534Y2205D02*
X4690Y2205D01*
X4219Y2204D02*
X4375Y2204D01*
X4534Y2204D02*
X4690Y2204D01*
X4219Y2203D02*
X4375Y2203D01*
X4534Y2203D02*
X4690Y2203D01*
X4219Y2202D02*
X4375Y2202D01*
X4534Y2202D02*
X4690Y2202D01*
X4219Y2201D02*
X4375Y2201D01*
X4534Y2201D02*
X4690Y2201D01*
X4219Y2200D02*
X4375Y2200D01*
X4534Y2200D02*
X4690Y2200D01*
X4219Y2199D02*
X4375Y2199D01*
X4534Y2199D02*
X4690Y2199D01*
X4219Y2198D02*
X4375Y2198D01*
X4534Y2198D02*
X4690Y2198D01*
X4219Y2197D02*
X4375Y2197D01*
X4534Y2197D02*
X4690Y2197D01*
X4219Y2196D02*
X4375Y2196D01*
X4534Y2196D02*
X4690Y2196D01*
X4219Y2195D02*
X4375Y2195D01*
X4534Y2195D02*
X4690Y2195D01*
X4219Y2194D02*
X4375Y2194D01*
X4534Y2194D02*
X4690Y2194D01*
X4219Y2193D02*
X4375Y2193D01*
X4534Y2193D02*
X4690Y2193D01*
X4219Y2192D02*
X4375Y2192D01*
X4534Y2192D02*
X4690Y2192D01*
X4219Y2191D02*
X4375Y2191D01*
X4534Y2191D02*
X4690Y2191D01*
X4219Y2190D02*
X4375Y2190D01*
X4534Y2190D02*
X4690Y2190D01*
X4219Y2189D02*
X4375Y2189D01*
X4534Y2189D02*
X4690Y2189D01*
X4219Y2188D02*
X4375Y2188D01*
X4534Y2188D02*
X4690Y2188D01*
X4219Y2187D02*
X4375Y2187D01*
X4534Y2187D02*
X4690Y2187D01*
X4219Y2186D02*
X4375Y2186D01*
X4534Y2186D02*
X4690Y2186D01*
X4219Y2185D02*
X4375Y2185D01*
X4534Y2185D02*
X4690Y2185D01*
X4219Y2184D02*
X4375Y2184D01*
X4534Y2184D02*
X4690Y2184D01*
X4219Y2183D02*
X4375Y2183D01*
X4534Y2183D02*
X4690Y2183D01*
X4219Y2182D02*
X4375Y2182D01*
X4534Y2182D02*
X4690Y2182D01*
X4219Y2181D02*
X4375Y2181D01*
X4534Y2181D02*
X4690Y2181D01*
X4219Y2180D02*
X4375Y2180D01*
X4534Y2180D02*
X4690Y2180D01*
X4219Y2179D02*
X4375Y2179D01*
X4534Y2179D02*
X4690Y2179D01*
X4219Y2178D02*
X4375Y2178D01*
X4534Y2178D02*
X4690Y2178D01*
X4219Y2177D02*
X4375Y2177D01*
X4534Y2177D02*
X4690Y2177D01*
X4219Y2176D02*
X4375Y2176D01*
X4534Y2176D02*
X4690Y2176D01*
X4219Y2175D02*
X4375Y2175D01*
X4534Y2175D02*
X4690Y2175D01*
X4219Y2174D02*
X4375Y2174D01*
X4534Y2174D02*
X4690Y2174D01*
X4219Y2173D02*
X4375Y2173D01*
X4534Y2173D02*
X4690Y2173D01*
X4219Y2172D02*
X4375Y2172D01*
X4534Y2172D02*
X4690Y2172D01*
X4219Y2171D02*
X4375Y2171D01*
X4534Y2171D02*
X4690Y2171D01*
X4219Y2170D02*
X4375Y2170D01*
X4534Y2170D02*
X4690Y2170D01*
X4219Y2169D02*
X4375Y2169D01*
X4534Y2169D02*
X4690Y2169D01*
X4219Y2168D02*
X4375Y2168D01*
X4534Y2168D02*
X4690Y2168D01*
X4219Y2167D02*
X4375Y2167D01*
X4534Y2167D02*
X4690Y2167D01*
X4219Y2166D02*
X4375Y2166D01*
X4534Y2166D02*
X4690Y2166D01*
X4219Y2165D02*
X4375Y2165D01*
X4534Y2165D02*
X4690Y2165D01*
X4219Y2164D02*
X4375Y2164D01*
X4534Y2164D02*
X4690Y2164D01*
X4219Y2163D02*
X4375Y2163D01*
X4534Y2163D02*
X4690Y2163D01*
X4219Y2162D02*
X4375Y2162D01*
X4534Y2162D02*
X4690Y2162D01*
X4219Y2161D02*
X4375Y2161D01*
X4534Y2161D02*
X4690Y2161D01*
X4219Y2160D02*
X4375Y2160D01*
X4534Y2160D02*
X4690Y2160D01*
X4219Y2159D02*
X4375Y2159D01*
X4534Y2159D02*
X4690Y2159D01*
X4219Y2158D02*
X4375Y2158D01*
X4534Y2158D02*
X4690Y2158D01*
X4219Y2157D02*
X4375Y2157D01*
X4534Y2157D02*
X4690Y2157D01*
X4219Y2156D02*
X4375Y2156D01*
X4534Y2156D02*
X4690Y2156D01*
X4219Y2155D02*
X4375Y2155D01*
X4534Y2155D02*
X4690Y2155D01*
X4219Y2154D02*
X4375Y2154D01*
X4534Y2154D02*
X4690Y2154D01*
X4219Y2153D02*
X4375Y2153D01*
X4534Y2153D02*
X4690Y2153D01*
X4219Y2152D02*
X4375Y2152D01*
X4534Y2152D02*
X4690Y2152D01*
X4219Y2151D02*
X4375Y2151D01*
X4534Y2151D02*
X4690Y2151D01*
X4219Y2150D02*
X4375Y2150D01*
X4534Y2150D02*
X4690Y2150D01*
X4219Y2149D02*
X4375Y2149D01*
X4534Y2149D02*
X4690Y2149D01*
X4219Y2148D02*
X4375Y2148D01*
X4534Y2148D02*
X4690Y2148D01*
X4219Y2147D02*
X4375Y2147D01*
X4534Y2147D02*
X4690Y2147D01*
X4219Y2146D02*
X4375Y2146D01*
X4534Y2146D02*
X4690Y2146D01*
X4219Y2145D02*
X4375Y2145D01*
X4534Y2145D02*
X4690Y2145D01*
X4219Y2144D02*
X4375Y2144D01*
X4534Y2144D02*
X4690Y2144D01*
X4219Y2143D02*
X4375Y2143D01*
X4534Y2143D02*
X4690Y2143D01*
X4219Y2142D02*
X4375Y2142D01*
X4534Y2142D02*
X4690Y2142D01*
X4219Y2141D02*
X4375Y2141D01*
X4534Y2141D02*
X4690Y2141D01*
X4219Y2140D02*
X4375Y2140D01*
X4534Y2140D02*
X4690Y2140D01*
X4219Y2139D02*
X4375Y2139D01*
X4534Y2139D02*
X4690Y2139D01*
X4219Y2138D02*
X4375Y2138D01*
X4534Y2138D02*
X4690Y2138D01*
X4219Y2137D02*
X4375Y2137D01*
X4534Y2137D02*
X4690Y2137D01*
X4219Y2136D02*
X4375Y2136D01*
X4534Y2136D02*
X4690Y2136D01*
X4219Y2135D02*
X4375Y2135D01*
X4534Y2135D02*
X4690Y2135D01*
X4219Y2134D02*
X4375Y2134D01*
X4534Y2134D02*
X4690Y2134D01*
X4219Y2133D02*
X4375Y2133D01*
X4534Y2133D02*
X4690Y2133D01*
X4219Y2132D02*
X4375Y2132D01*
X4534Y2132D02*
X4690Y2132D01*
X4219Y2131D02*
X4375Y2131D01*
X4534Y2131D02*
X4690Y2131D01*
X4219Y2130D02*
X4375Y2130D01*
X4534Y2130D02*
X4690Y2130D01*
X4219Y2129D02*
X4375Y2129D01*
X4534Y2129D02*
X4690Y2129D01*
X4219Y2128D02*
X4375Y2128D01*
X4534Y2128D02*
X4690Y2128D01*
X4219Y2127D02*
X4375Y2127D01*
X4534Y2127D02*
X4690Y2127D01*
X4219Y2126D02*
X4375Y2126D01*
X4534Y2126D02*
X4690Y2126D01*
X4219Y2125D02*
X4375Y2125D01*
X4534Y2125D02*
X4690Y2125D01*
X4219Y2124D02*
X4375Y2124D01*
X4534Y2124D02*
X4690Y2124D01*
X4219Y2123D02*
X4375Y2123D01*
X4534Y2123D02*
X4690Y2123D01*
X4219Y2122D02*
X4375Y2122D01*
X4534Y2122D02*
X4690Y2122D01*
X4219Y2121D02*
X4375Y2121D01*
X4534Y2121D02*
X4690Y2121D01*
X4219Y2120D02*
X4375Y2120D01*
X4534Y2120D02*
X4690Y2120D01*
X4219Y2119D02*
X4375Y2119D01*
X4534Y2119D02*
X4690Y2119D01*
X4219Y2118D02*
X4375Y2118D01*
X4534Y2118D02*
X4690Y2118D01*
X4219Y2117D02*
X4375Y2117D01*
X4534Y2117D02*
X4690Y2117D01*
X4219Y2116D02*
X4375Y2116D01*
X4534Y2116D02*
X4690Y2116D01*
X4219Y2115D02*
X4375Y2115D01*
X4534Y2115D02*
X4690Y2115D01*
X4219Y2114D02*
X4375Y2114D01*
X4534Y2114D02*
X4690Y2114D01*
X4219Y2113D02*
X4375Y2113D01*
X4534Y2113D02*
X4690Y2113D01*
X4219Y2112D02*
X4375Y2112D01*
X4534Y2112D02*
X4690Y2112D01*
X4219Y2111D02*
X4375Y2111D01*
X4534Y2111D02*
X4690Y2111D01*
X4219Y2110D02*
X4375Y2110D01*
X4534Y2110D02*
X4690Y2110D01*
X4219Y2109D02*
X4375Y2109D01*
X4534Y2109D02*
X4690Y2109D01*
X4219Y2108D02*
X4375Y2108D01*
X4534Y2108D02*
X4690Y2108D01*
X4219Y2107D02*
X4375Y2107D01*
X4534Y2107D02*
X4690Y2107D01*
X4219Y2106D02*
X4375Y2106D01*
X4534Y2106D02*
X4690Y2106D01*
X4219Y2105D02*
X4375Y2105D01*
X4534Y2105D02*
X4690Y2105D01*
X4219Y2104D02*
X4375Y2104D01*
X4534Y2104D02*
X4690Y2104D01*
X4219Y2103D02*
X4375Y2103D01*
X4534Y2103D02*
X4690Y2103D01*
X4219Y2102D02*
X4375Y2102D01*
X4534Y2102D02*
X4690Y2102D01*
X4219Y2101D02*
X4375Y2101D01*
X4534Y2101D02*
X4690Y2101D01*
X4219Y2100D02*
X4375Y2100D01*
X4534Y2100D02*
X4690Y2100D01*
X4219Y2099D02*
X4375Y2099D01*
X4534Y2099D02*
X4690Y2099D01*
X4219Y2098D02*
X4375Y2098D01*
X4534Y2098D02*
X4690Y2098D01*
X4219Y2097D02*
X4375Y2097D01*
X4534Y2097D02*
X4690Y2097D01*
X4219Y2096D02*
X4375Y2096D01*
X4534Y2096D02*
X4690Y2096D01*
X4219Y2095D02*
X4375Y2095D01*
X4534Y2095D02*
X4690Y2095D01*
X4219Y2094D02*
X4375Y2094D01*
X4534Y2094D02*
X4690Y2094D01*
X4219Y2093D02*
X4375Y2093D01*
X4534Y2093D02*
X4690Y2093D01*
X4219Y2092D02*
X4375Y2092D01*
X4534Y2092D02*
X4690Y2092D01*
X4219Y2091D02*
X4375Y2091D01*
X4534Y2091D02*
X4690Y2091D01*
X4219Y2090D02*
X4375Y2090D01*
X4534Y2090D02*
X4690Y2090D01*
X4219Y2089D02*
X4375Y2089D01*
X4534Y2089D02*
X4690Y2089D01*
X4219Y2088D02*
X4375Y2088D01*
X4534Y2088D02*
X4690Y2088D01*
X4219Y2087D02*
X4375Y2087D01*
X4534Y2087D02*
X4690Y2087D01*
X4219Y2086D02*
X4375Y2086D01*
X4534Y2086D02*
X4690Y2086D01*
X4219Y2085D02*
X4375Y2085D01*
X4534Y2085D02*
X4690Y2085D01*
X4219Y2084D02*
X4375Y2084D01*
X4534Y2084D02*
X4690Y2084D01*
X4219Y2083D02*
X4375Y2083D01*
X4534Y2083D02*
X4690Y2083D01*
X4219Y2082D02*
X4375Y2082D01*
X4534Y2082D02*
X4690Y2082D01*
X4219Y2081D02*
X4375Y2081D01*
X4534Y2081D02*
X4690Y2081D01*
X4219Y2080D02*
X4375Y2080D01*
X4534Y2080D02*
X4690Y2080D01*
X4219Y2079D02*
X4375Y2079D01*
X4534Y2079D02*
X4690Y2079D01*
X4219Y2078D02*
X4375Y2078D01*
X4534Y2078D02*
X4690Y2078D01*
X4219Y2077D02*
X4375Y2077D01*
X4534Y2077D02*
X4690Y2077D01*
X4219Y2076D02*
X4375Y2076D01*
X4534Y2076D02*
X4690Y2076D01*
X4219Y2075D02*
X4375Y2075D01*
X4534Y2075D02*
X4690Y2075D01*
X4219Y2074D02*
X4375Y2074D01*
X4534Y2074D02*
X4690Y2074D01*
X4219Y2073D02*
X4375Y2073D01*
X4534Y2073D02*
X4690Y2073D01*
X4219Y2072D02*
X4375Y2072D01*
X4534Y2072D02*
X4690Y2072D01*
X4219Y2071D02*
X4375Y2071D01*
X4534Y2071D02*
X4690Y2071D01*
X4219Y2070D02*
X4375Y2070D01*
X4534Y2070D02*
X4690Y2070D01*
X4219Y2069D02*
X4375Y2069D01*
X4534Y2069D02*
X4690Y2069D01*
X4219Y2068D02*
X4375Y2068D01*
X4534Y2068D02*
X4690Y2068D01*
X4219Y2067D02*
X4375Y2067D01*
X4534Y2067D02*
X4690Y2067D01*
D02*
G04 End of PasteMask0*
M02*