G04 MADE WITH FRITZING*
G04 WWW.FRITZING.ORG*
G04 DOUBLE SIDED*
G04 HOLES PLATED*
G04 CONTOUR ON CENTER OF CONTOUR VECTOR*
%ASAXBY*%
%FSLAX23Y23*%
%MOIN*%
%OFA0B0*%
%SFA1.0B1.0*%
%ADD10R,0.001000X0.001000*%
%LNSILK0*%
G90*
G70*
G54D10*
X2771Y362D02*
X2784Y362D01*
X2996Y362D02*
X3009Y362D01*
X2765Y361D02*
X2791Y361D01*
X2990Y361D02*
X3015Y361D01*
X2661Y360D02*
X2710Y360D01*
X2761Y360D02*
X2795Y360D01*
X2880Y360D02*
X2938Y360D01*
X2986Y360D02*
X3019Y360D01*
X3064Y360D02*
X3142Y360D01*
X2655Y359D02*
X2710Y359D01*
X2758Y359D02*
X2798Y359D01*
X2873Y359D02*
X2938Y359D01*
X2983Y359D02*
X3021Y359D01*
X3064Y359D02*
X3142Y359D01*
X2652Y358D02*
X2710Y358D01*
X2755Y358D02*
X2800Y358D01*
X2870Y358D02*
X2938Y358D01*
X2981Y358D02*
X3024Y358D01*
X3064Y358D02*
X3142Y358D01*
X2649Y357D02*
X2710Y357D01*
X2753Y357D02*
X2803Y357D01*
X2867Y357D02*
X2938Y357D01*
X2979Y357D02*
X3026Y357D01*
X3064Y357D02*
X3142Y357D01*
X2647Y356D02*
X2710Y356D01*
X2751Y356D02*
X2805Y356D01*
X2865Y356D02*
X2938Y356D01*
X2977Y356D02*
X3027Y356D01*
X3064Y356D02*
X3142Y356D01*
X2646Y355D02*
X2710Y355D01*
X2750Y355D02*
X2807Y355D01*
X2864Y355D02*
X2938Y355D01*
X2976Y355D02*
X3029Y355D01*
X3064Y355D02*
X3142Y355D01*
X2644Y354D02*
X2710Y354D01*
X2748Y354D02*
X2808Y354D01*
X2862Y354D02*
X2938Y354D01*
X2974Y354D02*
X3030Y354D01*
X3064Y354D02*
X3142Y354D01*
X2643Y353D02*
X2710Y353D01*
X2747Y353D02*
X2810Y353D01*
X2861Y353D02*
X2938Y353D01*
X2973Y353D02*
X3031Y353D01*
X3064Y353D02*
X3142Y353D01*
X2642Y352D02*
X2710Y352D01*
X2746Y352D02*
X2811Y352D01*
X2860Y352D02*
X2938Y352D01*
X2972Y352D02*
X3032Y352D01*
X3064Y352D02*
X3142Y352D01*
X2641Y351D02*
X2710Y351D01*
X2744Y351D02*
X2813Y351D01*
X2859Y351D02*
X2938Y351D01*
X2971Y351D02*
X3034Y351D01*
X3064Y351D02*
X3142Y351D01*
X2640Y350D02*
X2710Y350D01*
X2743Y350D02*
X2814Y350D01*
X2858Y350D02*
X2938Y350D01*
X2970Y350D02*
X3034Y350D01*
X3064Y350D02*
X3142Y350D01*
X2639Y349D02*
X2710Y349D01*
X2743Y349D02*
X2768Y349D01*
X2788Y349D02*
X2815Y349D01*
X2857Y349D02*
X2938Y349D01*
X2969Y349D02*
X2995Y349D01*
X3010Y349D02*
X3035Y349D01*
X3064Y349D02*
X3142Y349D01*
X2638Y348D02*
X2710Y348D01*
X2742Y348D02*
X2764Y348D01*
X2792Y348D02*
X2816Y348D01*
X2857Y348D02*
X2882Y348D01*
X2924Y348D02*
X2938Y348D01*
X2968Y348D02*
X2990Y348D01*
X3015Y348D02*
X3036Y348D01*
X3064Y348D02*
X3142Y348D01*
X2638Y347D02*
X2661Y347D01*
X2696Y347D02*
X2710Y347D01*
X2741Y347D02*
X2762Y347D01*
X2795Y347D02*
X2817Y347D01*
X2856Y347D02*
X2878Y347D01*
X2924Y347D02*
X2938Y347D01*
X2968Y347D02*
X2987Y347D01*
X3018Y347D02*
X3036Y347D01*
X3128Y347D02*
X3142Y347D01*
X2637Y346D02*
X2656Y346D01*
X2696Y346D02*
X2710Y346D01*
X2740Y346D02*
X2759Y346D01*
X2797Y346D02*
X2818Y346D01*
X2856Y346D02*
X2875Y346D01*
X2924Y346D02*
X2938Y346D01*
X2967Y346D02*
X2985Y346D01*
X3020Y346D02*
X3037Y346D01*
X3128Y346D02*
X3142Y346D01*
X2637Y345D02*
X2654Y345D01*
X2696Y345D02*
X2710Y345D01*
X2739Y345D02*
X2758Y345D01*
X2799Y345D02*
X2819Y345D01*
X2855Y345D02*
X2873Y345D01*
X2924Y345D02*
X2938Y345D01*
X2966Y345D02*
X2984Y345D01*
X3021Y345D02*
X3038Y345D01*
X3128Y345D02*
X3142Y345D01*
X2636Y344D02*
X2653Y344D01*
X2696Y344D02*
X2710Y344D01*
X2739Y344D02*
X2756Y344D01*
X2801Y344D02*
X2819Y344D01*
X2854Y344D02*
X2872Y344D01*
X2924Y344D02*
X2938Y344D01*
X2966Y344D02*
X2982Y344D01*
X3023Y344D02*
X3038Y344D01*
X3128Y344D02*
X3142Y344D01*
X2636Y343D02*
X2651Y343D01*
X2696Y343D02*
X2710Y343D01*
X2738Y343D02*
X2755Y343D01*
X2802Y343D02*
X2820Y343D01*
X2854Y343D02*
X2871Y343D01*
X2924Y343D02*
X2938Y343D01*
X2965Y343D02*
X2981Y343D01*
X3024Y343D02*
X3039Y343D01*
X3128Y343D02*
X3142Y343D01*
X2635Y342D02*
X2650Y342D01*
X2696Y342D02*
X2710Y342D01*
X2738Y342D02*
X2754Y342D01*
X2803Y342D02*
X2821Y342D01*
X2854Y342D02*
X2870Y342D01*
X2924Y342D02*
X2938Y342D01*
X2965Y342D02*
X2980Y342D01*
X3025Y342D02*
X3039Y342D01*
X3128Y342D02*
X3142Y342D01*
X2635Y341D02*
X2650Y341D01*
X2696Y341D02*
X2710Y341D01*
X2737Y341D02*
X2753Y341D01*
X2805Y341D02*
X2822Y341D01*
X2853Y341D02*
X2869Y341D01*
X2924Y341D02*
X2938Y341D01*
X2965Y341D02*
X2980Y341D01*
X3025Y341D02*
X3039Y341D01*
X3128Y341D02*
X3142Y341D01*
X2635Y340D02*
X2649Y340D01*
X2696Y340D02*
X2710Y340D01*
X2737Y340D02*
X2752Y340D01*
X2806Y340D02*
X2822Y340D01*
X2853Y340D02*
X2868Y340D01*
X2924Y340D02*
X2938Y340D01*
X2964Y340D02*
X2979Y340D01*
X3026Y340D02*
X3040Y340D01*
X3128Y340D02*
X3142Y340D01*
X2634Y339D02*
X2649Y339D01*
X2696Y339D02*
X2710Y339D01*
X2736Y339D02*
X2751Y339D01*
X2807Y339D02*
X2823Y339D01*
X2853Y339D02*
X2868Y339D01*
X2924Y339D02*
X2938Y339D01*
X2964Y339D02*
X2978Y339D01*
X3027Y339D02*
X3040Y339D01*
X3128Y339D02*
X3142Y339D01*
X2634Y338D02*
X2648Y338D01*
X2696Y338D02*
X2710Y338D01*
X2736Y338D02*
X2750Y338D01*
X2807Y338D02*
X2823Y338D01*
X2852Y338D02*
X2867Y338D01*
X2924Y338D02*
X2938Y338D01*
X2964Y338D02*
X2978Y338D01*
X3027Y338D02*
X3040Y338D01*
X3128Y338D02*
X3142Y338D01*
X2634Y337D02*
X2648Y337D01*
X2696Y337D02*
X2710Y337D01*
X2735Y337D02*
X2750Y337D01*
X2808Y337D02*
X2824Y337D01*
X2852Y337D02*
X2867Y337D01*
X2924Y337D02*
X2938Y337D01*
X2963Y337D02*
X2977Y337D01*
X3027Y337D02*
X3040Y337D01*
X3128Y337D02*
X3142Y337D01*
X2634Y336D02*
X2647Y336D01*
X2696Y336D02*
X2710Y336D01*
X2735Y336D02*
X2749Y336D01*
X2809Y336D02*
X2824Y336D01*
X2852Y336D02*
X2866Y336D01*
X2924Y336D02*
X2938Y336D01*
X2963Y336D02*
X2977Y336D01*
X3028Y336D02*
X3041Y336D01*
X3128Y336D02*
X3142Y336D01*
X2634Y335D02*
X2647Y335D01*
X2696Y335D02*
X2710Y335D01*
X2735Y335D02*
X2749Y335D01*
X2810Y335D02*
X2825Y335D01*
X2852Y335D02*
X2866Y335D01*
X2924Y335D02*
X2938Y335D01*
X2963Y335D02*
X2977Y335D01*
X3028Y335D02*
X3041Y335D01*
X3128Y335D02*
X3142Y335D01*
X2634Y334D02*
X2647Y334D01*
X2696Y334D02*
X2710Y334D01*
X2734Y334D02*
X2748Y334D01*
X2810Y334D02*
X2825Y334D01*
X2852Y334D02*
X2866Y334D01*
X2924Y334D02*
X2938Y334D01*
X2963Y334D02*
X2976Y334D01*
X3028Y334D02*
X3041Y334D01*
X3128Y334D02*
X3142Y334D01*
X2633Y333D02*
X2647Y333D01*
X2696Y333D02*
X2710Y333D01*
X2734Y333D02*
X2748Y333D01*
X2811Y333D02*
X2826Y333D01*
X2852Y333D02*
X2866Y333D01*
X2924Y333D02*
X2938Y333D01*
X2963Y333D02*
X2976Y333D01*
X3028Y333D02*
X3041Y333D01*
X3128Y333D02*
X3142Y333D01*
X2633Y332D02*
X2647Y332D01*
X2696Y332D02*
X2710Y332D01*
X2734Y332D02*
X2747Y332D01*
X2812Y332D02*
X2826Y332D01*
X2852Y332D02*
X2866Y332D01*
X2924Y332D02*
X2938Y332D01*
X2962Y332D02*
X2976Y332D01*
X3028Y332D02*
X3041Y332D01*
X3128Y332D02*
X3142Y332D01*
X2634Y331D02*
X2647Y331D01*
X2696Y331D02*
X2710Y331D01*
X2733Y331D02*
X2747Y331D01*
X2812Y331D02*
X2827Y331D01*
X2852Y331D02*
X2866Y331D01*
X2924Y331D02*
X2938Y331D01*
X2962Y331D02*
X2976Y331D01*
X3028Y331D02*
X3041Y331D01*
X3128Y331D02*
X3142Y331D01*
X2634Y330D02*
X2647Y330D01*
X2696Y330D02*
X2710Y330D01*
X2733Y330D02*
X2746Y330D01*
X2813Y330D02*
X2827Y330D01*
X2852Y330D02*
X2866Y330D01*
X2924Y330D02*
X2938Y330D01*
X2962Y330D02*
X2975Y330D01*
X3028Y330D02*
X3041Y330D01*
X3128Y330D02*
X3142Y330D01*
X2634Y329D02*
X2647Y329D01*
X2696Y329D02*
X2710Y329D01*
X2736Y329D02*
X2746Y329D01*
X2813Y329D02*
X2827Y329D01*
X2852Y329D02*
X2866Y329D01*
X2924Y329D02*
X2938Y329D01*
X2971Y329D02*
X2975Y329D01*
X3027Y329D02*
X3041Y329D01*
X3128Y329D02*
X3142Y329D01*
X2634Y328D02*
X2647Y328D01*
X2696Y328D02*
X2710Y328D01*
X2740Y328D02*
X2746Y328D01*
X2813Y328D02*
X2828Y328D01*
X2852Y328D02*
X2866Y328D01*
X2924Y328D02*
X2938Y328D01*
X3027Y328D02*
X3040Y328D01*
X3128Y328D02*
X3142Y328D01*
X2634Y327D02*
X2647Y327D01*
X2696Y327D02*
X2710Y327D01*
X2744Y327D02*
X2745Y327D01*
X2814Y327D02*
X2828Y327D01*
X2852Y327D02*
X2866Y327D01*
X2924Y327D02*
X2938Y327D01*
X3026Y327D02*
X3040Y327D01*
X3128Y327D02*
X3142Y327D01*
X2634Y326D02*
X2647Y326D01*
X2696Y326D02*
X2710Y326D01*
X2814Y326D02*
X2828Y326D01*
X2852Y326D02*
X2866Y326D01*
X2924Y326D02*
X2938Y326D01*
X3026Y326D02*
X3040Y326D01*
X3128Y326D02*
X3142Y326D01*
X2635Y325D02*
X2648Y325D01*
X2696Y325D02*
X2710Y325D01*
X2815Y325D02*
X2829Y325D01*
X2852Y325D02*
X2866Y325D01*
X2924Y325D02*
X2938Y325D01*
X3025Y325D02*
X3040Y325D01*
X3128Y325D02*
X3142Y325D01*
X2635Y324D02*
X2648Y324D01*
X2696Y324D02*
X2710Y324D01*
X2815Y324D02*
X2829Y324D01*
X2852Y324D02*
X2867Y324D01*
X2924Y324D02*
X2938Y324D01*
X3024Y324D02*
X3039Y324D01*
X3128Y324D02*
X3142Y324D01*
X2635Y323D02*
X2648Y323D01*
X2696Y323D02*
X2710Y323D01*
X2815Y323D02*
X2829Y323D01*
X2853Y323D02*
X2867Y323D01*
X2924Y323D02*
X2938Y323D01*
X3023Y323D02*
X3039Y323D01*
X3128Y323D02*
X3142Y323D01*
X2636Y322D02*
X2649Y322D01*
X2696Y322D02*
X2710Y322D01*
X2815Y322D02*
X2830Y322D01*
X2853Y322D02*
X2868Y322D01*
X2924Y322D02*
X2938Y322D01*
X3021Y322D02*
X3039Y322D01*
X3128Y322D02*
X3142Y322D01*
X2636Y321D02*
X2650Y321D01*
X2696Y321D02*
X2710Y321D01*
X2816Y321D02*
X2830Y321D01*
X2853Y321D02*
X2868Y321D01*
X2924Y321D02*
X2938Y321D01*
X3019Y321D02*
X3038Y321D01*
X3128Y321D02*
X3142Y321D01*
X2637Y320D02*
X2651Y320D01*
X2696Y320D02*
X2710Y320D01*
X2816Y320D02*
X2830Y320D01*
X2854Y320D02*
X2869Y320D01*
X2924Y320D02*
X2938Y320D01*
X3017Y320D02*
X3038Y320D01*
X3128Y320D02*
X3142Y320D01*
X2637Y319D02*
X2652Y319D01*
X2696Y319D02*
X2710Y319D01*
X2816Y319D02*
X2830Y319D01*
X2854Y319D02*
X2870Y319D01*
X2924Y319D02*
X2938Y319D01*
X3014Y319D02*
X3037Y319D01*
X3128Y319D02*
X3142Y319D01*
X2638Y318D02*
X2653Y318D01*
X2696Y318D02*
X2710Y318D01*
X2816Y318D02*
X2830Y318D01*
X2854Y318D02*
X2871Y318D01*
X2924Y318D02*
X2938Y318D01*
X3011Y318D02*
X3037Y318D01*
X3128Y318D02*
X3142Y318D01*
X2639Y317D02*
X2655Y317D01*
X2696Y317D02*
X2710Y317D01*
X2817Y317D02*
X2831Y317D01*
X2855Y317D02*
X2872Y317D01*
X2924Y317D02*
X2938Y317D01*
X3007Y317D02*
X3036Y317D01*
X3128Y317D02*
X3142Y317D01*
X2640Y316D02*
X2657Y316D01*
X2696Y316D02*
X2710Y316D01*
X2817Y316D02*
X2831Y316D01*
X2855Y316D02*
X2874Y316D01*
X2924Y316D02*
X2938Y316D01*
X3003Y316D02*
X3035Y316D01*
X3128Y316D02*
X3142Y316D01*
X2641Y315D02*
X2662Y315D01*
X2696Y315D02*
X2710Y315D01*
X2817Y315D02*
X2831Y315D01*
X2856Y315D02*
X2875Y315D01*
X2924Y315D02*
X2938Y315D01*
X2999Y315D02*
X3034Y315D01*
X3128Y315D02*
X3142Y315D01*
X2642Y314D02*
X2710Y314D01*
X2817Y314D02*
X2831Y314D01*
X2857Y314D02*
X2878Y314D01*
X2924Y314D02*
X2938Y314D01*
X2995Y314D02*
X3033Y314D01*
X3068Y314D02*
X3142Y314D01*
X2643Y313D02*
X2710Y313D01*
X2817Y313D02*
X2831Y313D01*
X2858Y313D02*
X2882Y313D01*
X2924Y313D02*
X2938Y313D01*
X2991Y313D02*
X3032Y313D01*
X3068Y313D02*
X3142Y313D01*
X2644Y312D02*
X2710Y312D01*
X2817Y312D02*
X2831Y312D01*
X2858Y312D02*
X2938Y312D01*
X2987Y312D02*
X3031Y312D01*
X3068Y312D02*
X3142Y312D01*
X2646Y311D02*
X2710Y311D01*
X2817Y311D02*
X2831Y311D01*
X2859Y311D02*
X2938Y311D01*
X2984Y311D02*
X3030Y311D01*
X3068Y311D02*
X3142Y311D01*
X2648Y310D02*
X2710Y310D01*
X2817Y310D02*
X2831Y310D01*
X2860Y310D02*
X2938Y310D01*
X2981Y310D02*
X3028Y310D01*
X3068Y310D02*
X3142Y310D01*
X2648Y309D02*
X2710Y309D01*
X2817Y309D02*
X2832Y309D01*
X2861Y309D02*
X2938Y309D01*
X2978Y309D02*
X3026Y309D01*
X3068Y309D02*
X3142Y309D01*
X2645Y308D02*
X2710Y308D01*
X2817Y308D02*
X2832Y308D01*
X2863Y308D02*
X2938Y308D01*
X2976Y308D02*
X3025Y308D01*
X3068Y308D02*
X3142Y308D01*
X2643Y307D02*
X2710Y307D01*
X2818Y307D02*
X2832Y307D01*
X2864Y307D02*
X2938Y307D01*
X2974Y307D02*
X3022Y307D01*
X3068Y307D02*
X3142Y307D01*
X2641Y306D02*
X2710Y306D01*
X2732Y306D02*
X2777Y306D01*
X2818Y306D02*
X2832Y306D01*
X2866Y306D02*
X2938Y306D01*
X2973Y306D02*
X3020Y306D01*
X3068Y306D02*
X3142Y306D01*
X2639Y305D02*
X2710Y305D01*
X2732Y305D02*
X2777Y305D01*
X2818Y305D02*
X2832Y305D01*
X2868Y305D02*
X2938Y305D01*
X2971Y305D02*
X3017Y305D01*
X3068Y305D02*
X3142Y305D01*
X2638Y304D02*
X2710Y304D01*
X2732Y304D02*
X2777Y304D01*
X2817Y304D02*
X2832Y304D01*
X2870Y304D02*
X2938Y304D01*
X2970Y304D02*
X3014Y304D01*
X3068Y304D02*
X3142Y304D01*
X2637Y303D02*
X2710Y303D01*
X2732Y303D02*
X2777Y303D01*
X2817Y303D02*
X2832Y303D01*
X2873Y303D02*
X2938Y303D01*
X2969Y303D02*
X3010Y303D01*
X3068Y303D02*
X3142Y303D01*
X2636Y302D02*
X2710Y302D01*
X2732Y302D02*
X2777Y302D01*
X2817Y302D02*
X2832Y302D01*
X2877Y302D02*
X2938Y302D01*
X2967Y302D02*
X3006Y302D01*
X3068Y302D02*
X3142Y302D01*
X2635Y301D02*
X2659Y301D01*
X2696Y301D02*
X2710Y301D01*
X2732Y301D02*
X2777Y301D01*
X2817Y301D02*
X2831Y301D01*
X2882Y301D02*
X2938Y301D01*
X2966Y301D02*
X3002Y301D01*
X3128Y301D02*
X3142Y301D01*
X2634Y300D02*
X2655Y300D01*
X2696Y300D02*
X2710Y300D01*
X2732Y300D02*
X2777Y300D01*
X2817Y300D02*
X2831Y300D01*
X2881Y300D02*
X2938Y300D01*
X2965Y300D02*
X2998Y300D01*
X3128Y300D02*
X3142Y300D01*
X2633Y299D02*
X2652Y299D01*
X2696Y299D02*
X2710Y299D01*
X2732Y299D02*
X2777Y299D01*
X2817Y299D02*
X2831Y299D01*
X2879Y299D02*
X2898Y299D01*
X2924Y299D02*
X2938Y299D01*
X2965Y299D02*
X2994Y299D01*
X3128Y299D02*
X3142Y299D01*
X2633Y298D02*
X2650Y298D01*
X2696Y298D02*
X2710Y298D01*
X2732Y298D02*
X2777Y298D01*
X2817Y298D02*
X2831Y298D01*
X2877Y298D02*
X2895Y298D01*
X2924Y298D02*
X2938Y298D01*
X2964Y298D02*
X2991Y298D01*
X3128Y298D02*
X3142Y298D01*
X2632Y297D02*
X2649Y297D01*
X2696Y297D02*
X2710Y297D01*
X2732Y297D02*
X2777Y297D01*
X2817Y297D02*
X2831Y297D01*
X2876Y297D02*
X2893Y297D01*
X2924Y297D02*
X2938Y297D01*
X2963Y297D02*
X2987Y297D01*
X3128Y297D02*
X3142Y297D01*
X2631Y296D02*
X2647Y296D01*
X2696Y296D02*
X2710Y296D01*
X2732Y296D02*
X2777Y296D01*
X2817Y296D02*
X2831Y296D01*
X2874Y296D02*
X2892Y296D01*
X2924Y296D02*
X2938Y296D01*
X2963Y296D02*
X2984Y296D01*
X3128Y296D02*
X3142Y296D01*
X2631Y295D02*
X2646Y295D01*
X2696Y295D02*
X2710Y295D01*
X2732Y295D02*
X2777Y295D01*
X2817Y295D02*
X2831Y295D01*
X2873Y295D02*
X2890Y295D01*
X2924Y295D02*
X2938Y295D01*
X2962Y295D02*
X2982Y295D01*
X3128Y295D02*
X3142Y295D01*
X2630Y294D02*
X2646Y294D01*
X2696Y294D02*
X2710Y294D01*
X2732Y294D02*
X2745Y294D01*
X2817Y294D02*
X2831Y294D01*
X2872Y294D02*
X2889Y294D01*
X2924Y294D02*
X2938Y294D01*
X2962Y294D02*
X2980Y294D01*
X3128Y294D02*
X3142Y294D01*
X2630Y293D02*
X2645Y293D01*
X2696Y293D02*
X2710Y293D01*
X2732Y293D02*
X2745Y293D01*
X2816Y293D02*
X2831Y293D01*
X2871Y293D02*
X2888Y293D01*
X2924Y293D02*
X2938Y293D01*
X2961Y293D02*
X2978Y293D01*
X3128Y293D02*
X3142Y293D01*
X2630Y292D02*
X2644Y292D01*
X2696Y292D02*
X2710Y292D01*
X2732Y292D02*
X2745Y292D01*
X2816Y292D02*
X2830Y292D01*
X2870Y292D02*
X2887Y292D01*
X2924Y292D02*
X2938Y292D01*
X2961Y292D02*
X2977Y292D01*
X3128Y292D02*
X3142Y292D01*
X2629Y291D02*
X2644Y291D01*
X2696Y291D02*
X2710Y291D01*
X2732Y291D02*
X2745Y291D01*
X2816Y291D02*
X2830Y291D01*
X2869Y291D02*
X2886Y291D01*
X2924Y291D02*
X2938Y291D01*
X2960Y291D02*
X2976Y291D01*
X3128Y291D02*
X3142Y291D01*
X2629Y290D02*
X2643Y290D01*
X2696Y290D02*
X2710Y290D01*
X2732Y290D02*
X2745Y290D01*
X2816Y290D02*
X2830Y290D01*
X2868Y290D02*
X2886Y290D01*
X2924Y290D02*
X2938Y290D01*
X2960Y290D02*
X2975Y290D01*
X3128Y290D02*
X3142Y290D01*
X2629Y289D02*
X2643Y289D01*
X2696Y289D02*
X2710Y289D01*
X2732Y289D02*
X2745Y289D01*
X2815Y289D02*
X2830Y289D01*
X2868Y289D02*
X2885Y289D01*
X2924Y289D02*
X2938Y289D01*
X2960Y289D02*
X2974Y289D01*
X3128Y289D02*
X3142Y289D01*
X2629Y288D02*
X2643Y288D01*
X2696Y288D02*
X2710Y288D01*
X2732Y288D02*
X2745Y288D01*
X2815Y288D02*
X2829Y288D01*
X2867Y288D02*
X2884Y288D01*
X2924Y288D02*
X2938Y288D01*
X2960Y288D02*
X2974Y288D01*
X3128Y288D02*
X3142Y288D01*
X2628Y287D02*
X2643Y287D01*
X2696Y287D02*
X2710Y287D01*
X2732Y287D02*
X2745Y287D01*
X2815Y287D02*
X2829Y287D01*
X2866Y287D02*
X2883Y287D01*
X2924Y287D02*
X2938Y287D01*
X2959Y287D02*
X2973Y287D01*
X3032Y287D02*
X3037Y287D01*
X3128Y287D02*
X3142Y287D01*
X2628Y286D02*
X2642Y286D01*
X2696Y286D02*
X2710Y286D01*
X2732Y286D02*
X2745Y286D01*
X2814Y286D02*
X2829Y286D01*
X2865Y286D02*
X2882Y286D01*
X2924Y286D02*
X2938Y286D01*
X2959Y286D02*
X2973Y286D01*
X3032Y286D02*
X3045Y286D01*
X3128Y286D02*
X3142Y286D01*
X2628Y285D02*
X2642Y285D01*
X2696Y285D02*
X2710Y285D01*
X2732Y285D02*
X2745Y285D01*
X2814Y285D02*
X2828Y285D01*
X2864Y285D02*
X2882Y285D01*
X2924Y285D02*
X2938Y285D01*
X2959Y285D02*
X2973Y285D01*
X3032Y285D02*
X3045Y285D01*
X3128Y285D02*
X3142Y285D01*
X2628Y284D02*
X2642Y284D01*
X2696Y284D02*
X2710Y284D01*
X2732Y284D02*
X2745Y284D01*
X2814Y284D02*
X2828Y284D01*
X2864Y284D02*
X2881Y284D01*
X2924Y284D02*
X2938Y284D01*
X2959Y284D02*
X2972Y284D01*
X3032Y284D02*
X3045Y284D01*
X3128Y284D02*
X3142Y284D01*
X2628Y283D02*
X2642Y283D01*
X2696Y283D02*
X2710Y283D01*
X2732Y283D02*
X2745Y283D01*
X2813Y283D02*
X2828Y283D01*
X2863Y283D02*
X2880Y283D01*
X2924Y283D02*
X2938Y283D01*
X2959Y283D02*
X2972Y283D01*
X3032Y283D02*
X3045Y283D01*
X3128Y283D02*
X3142Y283D01*
X2628Y282D02*
X2642Y282D01*
X2696Y282D02*
X2710Y282D01*
X2732Y282D02*
X2745Y282D01*
X2813Y282D02*
X2827Y282D01*
X2862Y282D02*
X2880Y282D01*
X2924Y282D02*
X2938Y282D01*
X2959Y282D02*
X2972Y282D01*
X3031Y282D02*
X3044Y282D01*
X3128Y282D02*
X3142Y282D01*
X2628Y281D02*
X2642Y281D01*
X2696Y281D02*
X2710Y281D01*
X2732Y281D02*
X2745Y281D01*
X2812Y281D02*
X2827Y281D01*
X2862Y281D02*
X2879Y281D01*
X2924Y281D02*
X2938Y281D01*
X2959Y281D02*
X2972Y281D01*
X3031Y281D02*
X3044Y281D01*
X3128Y281D02*
X3142Y281D01*
X2628Y280D02*
X2642Y280D01*
X2696Y280D02*
X2710Y280D01*
X2732Y280D02*
X2745Y280D01*
X2812Y280D02*
X2827Y280D01*
X2861Y280D02*
X2878Y280D01*
X2924Y280D02*
X2938Y280D01*
X2959Y280D02*
X2972Y280D01*
X3031Y280D02*
X3044Y280D01*
X3128Y280D02*
X3142Y280D01*
X2628Y279D02*
X2642Y279D01*
X2696Y279D02*
X2710Y279D01*
X2732Y279D02*
X2745Y279D01*
X2811Y279D02*
X2826Y279D01*
X2860Y279D02*
X2878Y279D01*
X2924Y279D02*
X2938Y279D01*
X2959Y279D02*
X2972Y279D01*
X3030Y279D02*
X3044Y279D01*
X3128Y279D02*
X3142Y279D01*
X2628Y278D02*
X2643Y278D01*
X2696Y278D02*
X2710Y278D01*
X2732Y278D02*
X2745Y278D01*
X2810Y278D02*
X2826Y278D01*
X2860Y278D02*
X2877Y278D01*
X2924Y278D02*
X2938Y278D01*
X2959Y278D02*
X2972Y278D01*
X3030Y278D02*
X3044Y278D01*
X3128Y278D02*
X3142Y278D01*
X2629Y277D02*
X2643Y277D01*
X2696Y277D02*
X2710Y277D01*
X2732Y277D02*
X2745Y277D01*
X2810Y277D02*
X2825Y277D01*
X2859Y277D02*
X2876Y277D01*
X2924Y277D02*
X2938Y277D01*
X2959Y277D02*
X2972Y277D01*
X3030Y277D02*
X3043Y277D01*
X3128Y277D02*
X3142Y277D01*
X2629Y276D02*
X2643Y276D01*
X2696Y276D02*
X2710Y276D01*
X2732Y276D02*
X2745Y276D01*
X2809Y276D02*
X2825Y276D01*
X2859Y276D02*
X2876Y276D01*
X2924Y276D02*
X2938Y276D01*
X2960Y276D02*
X2973Y276D01*
X3029Y276D02*
X3043Y276D01*
X3128Y276D02*
X3142Y276D01*
X2629Y275D02*
X2644Y275D01*
X2696Y275D02*
X2710Y275D01*
X2732Y275D02*
X2745Y275D01*
X2808Y275D02*
X2824Y275D01*
X2858Y275D02*
X2875Y275D01*
X2924Y275D02*
X2938Y275D01*
X2960Y275D02*
X2973Y275D01*
X3028Y275D02*
X3043Y275D01*
X3128Y275D02*
X3142Y275D01*
X2629Y274D02*
X2644Y274D01*
X2696Y274D02*
X2710Y274D01*
X2732Y274D02*
X2745Y274D01*
X2807Y274D02*
X2824Y274D01*
X2857Y274D02*
X2874Y274D01*
X2924Y274D02*
X2938Y274D01*
X2960Y274D02*
X2974Y274D01*
X3028Y274D02*
X3042Y274D01*
X3128Y274D02*
X3142Y274D01*
X2630Y273D02*
X2645Y273D01*
X2696Y273D02*
X2710Y273D01*
X2732Y273D02*
X2745Y273D01*
X2806Y273D02*
X2823Y273D01*
X2857Y273D02*
X2874Y273D01*
X2924Y273D02*
X2938Y273D01*
X2960Y273D02*
X2974Y273D01*
X3027Y273D02*
X3042Y273D01*
X3128Y273D02*
X3142Y273D01*
X2630Y272D02*
X2645Y272D01*
X2696Y272D02*
X2710Y272D01*
X2732Y272D02*
X2747Y272D01*
X2805Y272D02*
X2822Y272D01*
X2856Y272D02*
X2873Y272D01*
X2924Y272D02*
X2938Y272D01*
X2961Y272D02*
X2975Y272D01*
X3026Y272D02*
X3042Y272D01*
X3128Y272D02*
X3142Y272D01*
X2630Y271D02*
X2646Y271D01*
X2696Y271D02*
X2710Y271D01*
X2732Y271D02*
X2748Y271D01*
X2804Y271D02*
X2822Y271D01*
X2855Y271D02*
X2872Y271D01*
X2924Y271D02*
X2938Y271D01*
X2961Y271D02*
X2975Y271D01*
X3025Y271D02*
X3041Y271D01*
X3128Y271D02*
X3142Y271D01*
X2631Y270D02*
X2647Y270D01*
X2696Y270D02*
X2710Y270D01*
X2732Y270D02*
X2750Y270D01*
X2803Y270D02*
X2821Y270D01*
X2855Y270D02*
X2872Y270D01*
X2924Y270D02*
X2938Y270D01*
X2962Y270D02*
X2976Y270D01*
X3024Y270D02*
X3041Y270D01*
X3128Y270D02*
X3142Y270D01*
X2631Y269D02*
X2648Y269D01*
X2696Y269D02*
X2710Y269D01*
X2732Y269D02*
X2751Y269D01*
X2801Y269D02*
X2820Y269D01*
X2854Y269D02*
X2871Y269D01*
X2924Y269D02*
X2938Y269D01*
X2962Y269D02*
X2977Y269D01*
X3023Y269D02*
X3040Y269D01*
X3128Y269D02*
X3142Y269D01*
X2632Y268D02*
X2649Y268D01*
X2696Y268D02*
X2710Y268D01*
X2732Y268D02*
X2753Y268D01*
X2800Y268D02*
X2820Y268D01*
X2853Y268D02*
X2870Y268D01*
X2924Y268D02*
X2938Y268D01*
X2963Y268D02*
X2978Y268D01*
X3022Y268D02*
X3040Y268D01*
X3128Y268D02*
X3142Y268D01*
X2632Y267D02*
X2651Y267D01*
X2696Y267D02*
X2710Y267D01*
X2732Y267D02*
X2755Y267D01*
X2798Y267D02*
X2819Y267D01*
X2853Y267D02*
X2870Y267D01*
X2924Y267D02*
X2938Y267D01*
X2963Y267D02*
X2980Y267D01*
X3020Y267D02*
X3039Y267D01*
X3128Y267D02*
X3142Y267D01*
X2633Y266D02*
X2653Y266D01*
X2696Y266D02*
X2710Y266D01*
X2732Y266D02*
X2758Y266D01*
X2796Y266D02*
X2818Y266D01*
X2852Y266D02*
X2869Y266D01*
X2924Y266D02*
X2938Y266D01*
X2964Y266D02*
X2981Y266D01*
X3018Y266D02*
X3038Y266D01*
X3128Y266D02*
X3142Y266D01*
X2633Y265D02*
X2656Y265D01*
X2696Y265D02*
X2710Y265D01*
X2733Y265D02*
X2760Y265D01*
X2793Y265D02*
X2817Y265D01*
X2852Y265D02*
X2869Y265D01*
X2924Y265D02*
X2938Y265D01*
X2964Y265D02*
X2984Y265D01*
X3016Y265D02*
X3038Y265D01*
X3128Y265D02*
X3142Y265D01*
X2634Y264D02*
X2667Y264D01*
X2696Y264D02*
X2710Y264D01*
X2735Y264D02*
X2764Y264D01*
X2790Y264D02*
X2816Y264D01*
X2851Y264D02*
X2868Y264D01*
X2924Y264D02*
X2938Y264D01*
X2965Y264D02*
X2986Y264D01*
X3013Y264D02*
X3037Y264D01*
X3128Y264D02*
X3142Y264D01*
X2635Y263D02*
X2710Y263D01*
X2736Y263D02*
X2768Y263D01*
X2786Y263D02*
X2815Y263D01*
X2850Y263D02*
X2867Y263D01*
X2924Y263D02*
X2938Y263D01*
X2966Y263D02*
X2990Y263D01*
X3009Y263D02*
X3036Y263D01*
X3061Y263D02*
X3142Y263D01*
X2636Y262D02*
X2710Y262D01*
X2738Y262D02*
X2814Y262D01*
X2850Y262D02*
X2867Y262D01*
X2924Y262D02*
X2938Y262D01*
X2967Y262D02*
X3035Y262D01*
X3061Y262D02*
X3142Y262D01*
X2636Y261D02*
X2710Y261D01*
X2739Y261D02*
X2812Y261D01*
X2849Y261D02*
X2866Y261D01*
X2924Y261D02*
X2938Y261D01*
X2968Y261D02*
X3034Y261D01*
X3061Y261D02*
X3142Y261D01*
X2637Y260D02*
X2710Y260D01*
X2741Y260D02*
X2811Y260D01*
X2848Y260D02*
X2865Y260D01*
X2924Y260D02*
X2938Y260D01*
X2969Y260D02*
X3033Y260D01*
X3061Y260D02*
X3142Y260D01*
X2639Y259D02*
X2710Y259D01*
X2742Y259D02*
X2810Y259D01*
X2848Y259D02*
X2865Y259D01*
X2924Y259D02*
X2938Y259D01*
X2970Y259D02*
X3032Y259D01*
X3061Y259D02*
X3142Y259D01*
X2640Y258D02*
X2710Y258D01*
X2744Y258D02*
X2808Y258D01*
X2847Y258D02*
X2864Y258D01*
X2924Y258D02*
X2938Y258D01*
X2971Y258D02*
X3031Y258D01*
X3061Y258D02*
X3142Y258D01*
X2641Y257D02*
X2710Y257D01*
X2746Y257D02*
X2806Y257D01*
X2846Y257D02*
X2864Y257D01*
X2924Y257D02*
X2938Y257D01*
X2972Y257D02*
X3029Y257D01*
X3061Y257D02*
X3142Y257D01*
X2643Y256D02*
X2710Y256D01*
X2748Y256D02*
X2805Y256D01*
X2846Y256D02*
X2863Y256D01*
X2924Y256D02*
X2938Y256D01*
X2974Y256D02*
X3028Y256D01*
X3061Y256D02*
X3142Y256D01*
X2645Y255D02*
X2710Y255D01*
X2750Y255D02*
X2802Y255D01*
X2845Y255D02*
X2862Y255D01*
X2924Y255D02*
X2938Y255D01*
X2976Y255D02*
X3026Y255D01*
X3061Y255D02*
X3142Y255D01*
X2648Y254D02*
X2710Y254D01*
X2753Y254D02*
X2800Y254D01*
X2845Y254D02*
X2862Y254D01*
X2924Y254D02*
X2938Y254D01*
X2978Y254D02*
X3024Y254D01*
X3061Y254D02*
X3142Y254D01*
X2651Y253D02*
X2710Y253D01*
X2755Y253D02*
X2798Y253D01*
X2844Y253D02*
X2861Y253D01*
X2924Y253D02*
X2938Y253D01*
X2980Y253D02*
X3021Y253D01*
X3061Y253D02*
X3142Y253D01*
X2657Y252D02*
X2710Y252D01*
X2758Y252D02*
X2795Y252D01*
X2843Y252D02*
X2860Y252D01*
X2924Y252D02*
X2938Y252D01*
X2982Y252D02*
X3018Y252D01*
X3061Y252D02*
X3142Y252D01*
X2762Y251D02*
X2791Y251D01*
X2986Y251D02*
X3014Y251D01*
X2768Y250D02*
X2786Y250D01*
X2991Y250D02*
X3009Y250D01*
X2658Y248D02*
X2671Y248D01*
X2768Y248D02*
X2780Y248D01*
X2877Y248D02*
X2889Y248D01*
X2986Y248D02*
X2998Y248D01*
X3095Y248D02*
X3108Y248D01*
X2658Y247D02*
X2671Y247D01*
X2768Y247D02*
X2780Y247D01*
X2877Y247D02*
X2889Y247D01*
X2986Y247D02*
X2998Y247D01*
X3095Y247D02*
X3108Y247D01*
X2658Y246D02*
X2671Y246D01*
X2768Y246D02*
X2780Y246D01*
X2877Y246D02*
X2889Y246D01*
X2986Y246D02*
X2998Y246D01*
X3095Y246D02*
X3108Y246D01*
X2658Y245D02*
X2671Y245D01*
X2768Y245D02*
X2780Y245D01*
X2877Y245D02*
X2889Y245D01*
X2986Y245D02*
X2998Y245D01*
X3095Y245D02*
X3108Y245D01*
X2659Y244D02*
X2671Y244D01*
X2768Y244D02*
X2780Y244D01*
X2877Y244D02*
X2889Y244D01*
X2986Y244D02*
X2998Y244D01*
X3095Y244D02*
X3107Y244D01*
X2659Y239D02*
X2671Y239D01*
X2768Y239D02*
X2780Y239D01*
X2877Y239D02*
X2889Y239D01*
X2986Y239D02*
X2998Y239D01*
X3095Y239D02*
X3107Y239D01*
X2658Y238D02*
X2671Y238D01*
X2768Y238D02*
X2780Y238D01*
X2877Y238D02*
X2889Y238D01*
X2986Y238D02*
X2998Y238D01*
X3095Y238D02*
X3108Y238D01*
X2658Y237D02*
X2671Y237D01*
X2768Y237D02*
X2780Y237D01*
X2877Y237D02*
X2889Y237D01*
X2986Y237D02*
X2998Y237D01*
X3095Y237D02*
X3108Y237D01*
X2658Y236D02*
X2671Y236D01*
X2768Y236D02*
X2780Y236D01*
X2877Y236D02*
X2889Y236D01*
X2986Y236D02*
X2998Y236D01*
X3095Y236D02*
X3108Y236D01*
X2659Y235D02*
X2671Y235D01*
X2768Y235D02*
X2780Y235D01*
X2877Y235D02*
X2889Y235D01*
X2986Y235D02*
X2998Y235D01*
X3095Y235D02*
X3107Y235D01*
X2659Y230D02*
X2671Y230D01*
X2768Y230D02*
X2780Y230D01*
X2877Y230D02*
X2889Y230D01*
X2986Y230D02*
X2998Y230D01*
X3095Y230D02*
X3107Y230D01*
X2670Y229D02*
X2671Y229D01*
X2779Y229D02*
X2780Y229D01*
X2888Y229D02*
X2889Y229D01*
X2997Y229D02*
X2998Y229D01*
X2670Y146D02*
X2671Y146D01*
X2779Y146D02*
X2780Y146D01*
X2888Y146D02*
X2889Y146D01*
X2997Y146D02*
X2998Y146D01*
X2658Y145D02*
X2671Y145D01*
X2768Y145D02*
X2780Y145D01*
X2877Y145D02*
X2889Y145D01*
X2986Y145D02*
X2998Y145D01*
X3095Y145D02*
X3108Y145D01*
X2658Y144D02*
X2671Y144D01*
X2768Y144D02*
X2780Y144D01*
X2877Y144D02*
X2889Y144D01*
X2986Y144D02*
X2998Y144D01*
X3095Y144D02*
X3108Y144D01*
X2658Y138D02*
X2671Y138D01*
X2768Y138D02*
X2780Y138D01*
X2877Y138D02*
X2889Y138D01*
X2986Y138D02*
X2998Y138D01*
X3095Y138D02*
X3108Y138D01*
X2658Y137D02*
X2671Y137D01*
X2768Y137D02*
X2780Y137D01*
X2877Y137D02*
X2889Y137D01*
X2986Y137D02*
X2998Y137D01*
X3095Y137D02*
X3108Y137D01*
X2658Y136D02*
X2671Y136D01*
X2768Y136D02*
X2780Y136D01*
X2877Y136D02*
X2889Y136D01*
X2986Y136D02*
X2998Y136D01*
X3095Y136D02*
X3108Y136D01*
X2658Y135D02*
X2671Y135D01*
X2768Y135D02*
X2780Y135D01*
X2877Y135D02*
X2889Y135D01*
X2986Y135D02*
X2998Y135D01*
X3095Y135D02*
X3108Y135D01*
X2658Y129D02*
X2671Y129D01*
X2768Y129D02*
X2780Y129D01*
X2877Y129D02*
X2889Y129D01*
X2986Y129D02*
X2998Y129D01*
X3095Y129D02*
X3108Y129D01*
X2658Y128D02*
X2671Y128D01*
X2768Y128D02*
X2780Y128D01*
X2877Y128D02*
X2889Y128D01*
X2986Y128D02*
X2998Y128D01*
X3095Y128D02*
X3108Y128D01*
X2658Y127D02*
X2671Y127D01*
X2768Y127D02*
X2780Y127D01*
X2877Y127D02*
X2889Y127D01*
X2986Y127D02*
X2998Y127D01*
X3095Y127D02*
X3108Y127D01*
X2658Y126D02*
X2671Y126D01*
X2768Y126D02*
X2780Y126D01*
X2877Y126D02*
X2889Y126D01*
X2986Y126D02*
X2998Y126D01*
X3095Y126D02*
X3108Y126D01*
X2658Y120D02*
X2671Y120D01*
X2768Y120D02*
X2780Y120D01*
X2877Y120D02*
X2889Y120D01*
X2986Y120D02*
X2998Y120D01*
X3095Y120D02*
X3108Y120D01*
X2658Y119D02*
X2671Y119D01*
X2768Y119D02*
X2780Y119D01*
X2877Y119D02*
X2889Y119D01*
X2986Y119D02*
X2998Y119D01*
X3095Y119D02*
X3108Y119D01*
X2658Y118D02*
X2671Y118D01*
X2768Y118D02*
X2780Y118D01*
X2877Y118D02*
X2889Y118D01*
X2986Y118D02*
X2998Y118D01*
X3095Y118D02*
X3108Y118D01*
X2658Y117D02*
X2671Y117D01*
X2768Y117D02*
X2780Y117D01*
X2877Y117D02*
X2889Y117D01*
X2986Y117D02*
X2998Y117D01*
X3095Y117D02*
X3108Y117D01*
X2659Y116D02*
X2671Y116D01*
X2768Y116D02*
X2780Y116D01*
X2877Y116D02*
X2889Y116D01*
X2986Y116D02*
X2998Y116D01*
X3095Y116D02*
X3107Y116D01*
X2659Y111D02*
X2671Y111D01*
X2768Y111D02*
X2780Y111D01*
X2877Y111D02*
X2889Y111D01*
X2986Y111D02*
X2998Y111D01*
X3095Y111D02*
X3107Y111D01*
X2658Y110D02*
X2671Y110D01*
X2768Y110D02*
X2780Y110D01*
X2877Y110D02*
X2889Y110D01*
X2986Y110D02*
X2998Y110D01*
X3095Y110D02*
X3108Y110D01*
X2658Y109D02*
X2671Y109D01*
X2768Y109D02*
X2780Y109D01*
X2877Y109D02*
X2889Y109D01*
X2986Y109D02*
X2998Y109D01*
X3095Y109D02*
X3108Y109D01*
X2658Y108D02*
X2671Y108D01*
X2768Y108D02*
X2780Y108D01*
X2877Y108D02*
X2889Y108D01*
X2986Y108D02*
X2998Y108D01*
X3095Y108D02*
X3108Y108D01*
X2659Y107D02*
X2671Y107D01*
X2768Y107D02*
X2780Y107D01*
X2877Y107D02*
X2889Y107D01*
X2986Y107D02*
X2998Y107D01*
X3095Y107D02*
X3107Y107D01*
X2659Y102D02*
X2671Y102D01*
X2768Y102D02*
X2780Y102D01*
X2877Y102D02*
X2889Y102D01*
X2986Y102D02*
X2998Y102D01*
X3095Y102D02*
X3107Y102D01*
X2658Y101D02*
X2671Y101D01*
X2768Y101D02*
X2780Y101D01*
X2877Y101D02*
X2889Y101D01*
X2986Y101D02*
X2998Y101D01*
X3095Y101D02*
X3108Y101D01*
X2658Y100D02*
X2671Y100D01*
X2768Y100D02*
X2780Y100D01*
X2877Y100D02*
X2889Y100D01*
X2986Y100D02*
X2998Y100D01*
X3095Y100D02*
X3108Y100D01*
X2658Y99D02*
X2671Y99D01*
X2768Y99D02*
X2780Y99D01*
X2877Y99D02*
X2889Y99D01*
X2986Y99D02*
X2998Y99D01*
X3095Y99D02*
X3108Y99D01*
X2659Y98D02*
X2671Y98D01*
X2768Y98D02*
X2780Y98D01*
X2877Y98D02*
X2889Y98D01*
X2986Y98D02*
X2998Y98D01*
X3095Y98D02*
X3107Y98D01*
X2659Y93D02*
X2671Y93D01*
X2768Y93D02*
X2780Y93D01*
X2877Y93D02*
X2889Y93D01*
X2986Y93D02*
X2998Y93D01*
X3095Y93D02*
X3107Y93D01*
X2658Y92D02*
X2671Y92D01*
X2768Y92D02*
X2780Y92D01*
X2877Y92D02*
X2889Y92D01*
X2986Y92D02*
X2998Y92D01*
X3095Y92D02*
X3108Y92D01*
X2658Y91D02*
X2671Y91D01*
X2768Y91D02*
X2780Y91D01*
X2877Y91D02*
X2889Y91D01*
X2986Y91D02*
X2998Y91D01*
X3095Y91D02*
X3108Y91D01*
X2658Y90D02*
X2671Y90D01*
X2768Y90D02*
X2780Y90D01*
X2877Y90D02*
X2889Y90D01*
X2986Y90D02*
X2998Y90D01*
X3095Y90D02*
X3108Y90D01*
X2658Y89D02*
X2671Y89D01*
X2768Y89D02*
X2780Y89D01*
X2877Y89D02*
X2889Y89D01*
X2986Y89D02*
X2998Y89D01*
X3095Y89D02*
X3108Y89D01*
X2658Y83D02*
X2671Y83D01*
X2768Y83D02*
X2780Y83D01*
X2877Y83D02*
X2889Y83D01*
X2986Y83D02*
X2998Y83D01*
X3095Y83D02*
X3108Y83D01*
X2658Y82D02*
X2671Y82D01*
X2768Y82D02*
X2780Y82D01*
X2877Y82D02*
X2889Y82D01*
X2986Y82D02*
X2998Y82D01*
X3095Y82D02*
X3108Y82D01*
X2658Y81D02*
X2671Y81D01*
X2768Y81D02*
X2780Y81D01*
X2877Y81D02*
X2889Y81D01*
X2986Y81D02*
X2998Y81D01*
X3095Y81D02*
X3108Y81D01*
X2658Y80D02*
X2671Y80D01*
X2768Y80D02*
X2780Y80D01*
X2877Y80D02*
X2889Y80D01*
X2986Y80D02*
X2998Y80D01*
X3095Y80D02*
X3108Y80D01*
X2658Y74D02*
X2671Y74D01*
X2768Y74D02*
X2780Y74D01*
X2877Y74D02*
X2889Y74D01*
X2986Y74D02*
X2998Y74D01*
X3095Y74D02*
X3108Y74D01*
X2658Y73D02*
X2671Y73D01*
X2768Y73D02*
X2780Y73D01*
X2877Y73D02*
X2889Y73D01*
X2986Y73D02*
X2998Y73D01*
X3095Y73D02*
X3108Y73D01*
X2658Y72D02*
X2671Y72D01*
X2768Y72D02*
X2780Y72D01*
X2877Y72D02*
X2889Y72D01*
X2986Y72D02*
X2998Y72D01*
X3095Y72D02*
X3108Y72D01*
X2658Y71D02*
X2671Y71D01*
X2768Y71D02*
X2780Y71D01*
X2877Y71D02*
X2889Y71D01*
X2986Y71D02*
X2998Y71D01*
X3095Y71D02*
X3108Y71D01*
X2658Y65D02*
X2671Y65D01*
X2768Y65D02*
X2780Y65D01*
X2877Y65D02*
X2889Y65D01*
X2986Y65D02*
X2998Y65D01*
X3095Y65D02*
X3108Y65D01*
X2658Y64D02*
X2671Y64D01*
X2768Y64D02*
X2780Y64D01*
X2877Y64D02*
X2889Y64D01*
X2986Y64D02*
X2998Y64D01*
X3095Y64D02*
X3108Y64D01*
X2658Y63D02*
X2671Y63D01*
X2768Y63D02*
X2780Y63D01*
X2877Y63D02*
X2889Y63D01*
X2986Y63D02*
X2998Y63D01*
X3095Y63D02*
X3108Y63D01*
X2658Y62D02*
X2671Y62D01*
X2768Y62D02*
X2780Y62D01*
X2877Y62D02*
X2889Y62D01*
X2986Y62D02*
X2998Y62D01*
X3095Y62D02*
X3108Y62D01*
X2658Y56D02*
X2671Y56D01*
X2768Y56D02*
X2780Y56D01*
X2877Y56D02*
X2889Y56D01*
X2986Y56D02*
X2998Y56D01*
X3095Y56D02*
X3108Y56D01*
X2658Y55D02*
X2671Y55D01*
X2768Y55D02*
X2780Y55D01*
X2877Y55D02*
X2889Y55D01*
X2986Y55D02*
X2998Y55D01*
X3095Y55D02*
X3108Y55D01*
X2658Y54D02*
X2671Y54D01*
X2768Y54D02*
X2780Y54D01*
X2877Y54D02*
X2889Y54D01*
X2986Y54D02*
X2998Y54D01*
X3095Y54D02*
X3108Y54D01*
X2658Y53D02*
X2671Y53D01*
X2768Y53D02*
X2780Y53D01*
X2877Y53D02*
X2889Y53D01*
X2986Y53D02*
X2998Y53D01*
X3095Y53D02*
X3108Y53D01*
X2659Y52D02*
X2671Y52D01*
X2768Y52D02*
X2780Y52D01*
X2877Y52D02*
X2889Y52D01*
X2986Y52D02*
X2998Y52D01*
X3095Y52D02*
X3107Y52D01*
X2659Y47D02*
X2671Y47D01*
X2768Y47D02*
X2780Y47D01*
X2877Y47D02*
X2889Y47D01*
X2986Y47D02*
X2998Y47D01*
X3095Y47D02*
X3107Y47D01*
X2658Y46D02*
X2671Y46D01*
X2768Y46D02*
X2780Y46D01*
X2877Y46D02*
X2889Y46D01*
X2986Y46D02*
X2998Y46D01*
X3095Y46D02*
X3108Y46D01*
X2658Y45D02*
X2671Y45D01*
X2768Y45D02*
X2780Y45D01*
X2877Y45D02*
X2889Y45D01*
X2986Y45D02*
X2998Y45D01*
X3095Y45D02*
X3108Y45D01*
X2658Y44D02*
X2671Y44D01*
X2768Y44D02*
X2780Y44D01*
X2877Y44D02*
X2889Y44D01*
X2986Y44D02*
X2998Y44D01*
X3095Y44D02*
X3108Y44D01*
X2659Y43D02*
X2671Y43D01*
X2768Y43D02*
X2780Y43D01*
X2877Y43D02*
X2889Y43D01*
X2986Y43D02*
X2998Y43D01*
X3095Y43D02*
X3107Y43D01*
X2659Y38D02*
X2671Y38D01*
X2768Y38D02*
X2780Y38D01*
X2877Y38D02*
X2889Y38D01*
X2986Y38D02*
X2998Y38D01*
X3095Y38D02*
X3107Y38D01*
X2658Y37D02*
X2671Y37D01*
X2768Y37D02*
X2780Y37D01*
X2877Y37D02*
X2889Y37D01*
X2986Y37D02*
X2998Y37D01*
X3095Y37D02*
X3108Y37D01*
X2658Y36D02*
X2671Y36D01*
X2768Y36D02*
X2780Y36D01*
X2877Y36D02*
X2889Y36D01*
X2986Y36D02*
X2998Y36D01*
X3095Y36D02*
X3108Y36D01*
X2658Y35D02*
X2671Y35D01*
X2768Y35D02*
X2780Y35D01*
X2877Y35D02*
X2889Y35D01*
X2986Y35D02*
X2998Y35D01*
X3095Y35D02*
X3108Y35D01*
X2659Y34D02*
X2671Y34D01*
X2768Y34D02*
X2780Y34D01*
X2877Y34D02*
X2889Y34D01*
X2986Y34D02*
X2998Y34D01*
X3095Y34D02*
X3107Y34D01*
X2659Y29D02*
X2671Y29D01*
X2768Y29D02*
X2780Y29D01*
X2877Y29D02*
X2889Y29D01*
X2986Y29D02*
X2998Y29D01*
X3095Y29D02*
X3107Y29D01*
X2658Y28D02*
X2671Y28D01*
X2768Y28D02*
X2780Y28D01*
X2877Y28D02*
X2889Y28D01*
X2986Y28D02*
X2998Y28D01*
X3095Y28D02*
X3108Y28D01*
X2658Y27D02*
X2671Y27D01*
X2768Y27D02*
X2780Y27D01*
X2877Y27D02*
X2889Y27D01*
X2986Y27D02*
X2998Y27D01*
X3095Y27D02*
X3108Y27D01*
X2658Y26D02*
X2671Y26D01*
X2768Y26D02*
X2780Y26D01*
X2877Y26D02*
X2889Y26D01*
X2986Y26D02*
X2998Y26D01*
X3095Y26D02*
X3108Y26D01*
X2658Y25D02*
X2671Y25D01*
X2768Y25D02*
X2780Y25D01*
X2877Y25D02*
X2889Y25D01*
X2986Y25D02*
X2998Y25D01*
X3095Y25D02*
X3108Y25D01*
D02*
G04 End of Silk0*
M02*